<?xml version="1.0" encoding="UTF-8"?>
<!-- Generator: https://ezgif.com/png-to-svg -->
<svg version="1.1" xmlns="http://www.w3.org/2000/svg" width="666" height="375">
<path d="M0 0 C1.58 0.71 1.58 0.71 3.19 1.44 C9.39 4.88 13.15 9.09 17 15 C18.18 16.6 19.36 18.2 20.55 19.79 C27.53 29.24 32.42 39.2 37 50 C37.5 51.16 37.99 52.31 38.5 53.5 C39.48 55.79 40.46 58.08 41.44 60.38 C42.62 63.12 43.83 65.84 45.06 68.56 C49.88 79.48 49.88 79.48 49 86 C46.09 91.55 41.97 96.46 38.1 101.37 C36.81 102.95 36.81 102.95 37 105 C37.63 105.34 38.25 105.68 38.9 106.02 C39.72 106.47 40.53 106.92 41.38 107.38 C42.19 107.82 43 108.26 43.84 108.71 C46 110 46 110 48 112 C48.6 112.1 49.2 112.21 49.81 112.31 C53.06 113.33 54.77 115.56 57 118 C58.06 119.04 58.06 119.04 59.14 120.1 C64.42 125.48 67.43 130.39 69.83 137.53 C70.76 140.3 71.77 142.96 72.87 145.66 C75.16 151.35 77.25 157.08 79.25 162.88 C79.61 163.87 79.98 164.87 80.35 165.9 C83.45 174.93 84.95 184.27 80.88 193.25 C80.48 194.16 80.09 195.08 79.68 196.02 C77.46 199.95 74.78 203.45 72 207 C72.74 207.01 73.47 207.02 74.23 207.03 C77.57 207.08 80.91 207.17 84.25 207.25 C85.99 207.27 85.99 207.27 87.76 207.29 C88.88 207.33 89.99 207.36 91.14 207.39 C92.17 207.41 93.19 207.43 94.25 207.45 C97.66 208.13 98.89 209.29 101 212 C100.93 214.41 100.26 215.6 98.96 217.6 C95.84 219.83 92.44 219.4 88.75 219.37 C87.1 219.39 85.44 219.41 83.78 219.42 C81.17 219.43 78.56 219.44 75.95 219.44 C73.42 219.44 70.9 219.47 68.38 219.5 C67.6 219.49 66.82 219.48 66.02 219.47 C62.46 219.52 60.4 219.71 57.5 221.85 C55.5 224.72 55.66 226.49 55.88 229.94 C56.13 234.31 55.72 237 54 241 C35.42 241.09 16.85 241.16 -1.73 241.21 C-10.35 241.23 -18.98 241.26 -27.6 241.3 C-35.12 241.34 -42.64 241.37 -50.15 241.38 C-54.13 241.38 -58.11 241.39 -62.09 241.42 C-65.84 241.45 -69.59 241.46 -73.33 241.45 C-74.71 241.45 -76.08 241.46 -77.46 241.48 C-79.34 241.5 -81.21 241.49 -83.09 241.48 C-84.14 241.48 -85.19 241.49 -86.27 241.49 C-89.72 240.87 -90.9 239.76 -93 237 C-93.5 233.65 -93.5 233.65 -93.56 229.94 C-93.43 225.32 -93.43 225.32 -95.28 221.32 C-98.29 219.01 -102.07 219.58 -105.72 219.59 C-107 219.58 -107 219.58 -108.31 219.56 C-111.04 219.53 -113.77 219.51 -116.5 219.5 C-120.09 219.49 -123.69 219.45 -127.28 219.41 C-128.11 219.41 -128.94 219.41 -129.79 219.42 C-135.56 219.34 -135.56 219.34 -137.73 217.68 C-139.62 215.19 -139.2 213.03 -139 210 C-138.34 210 -137.68 210 -137 210 C-137 209.34 -137 208.68 -137 208 C-127.76 207.67 -118.52 207.34 -109 207 C-110.98 204.36 -112.96 201.72 -115 199 C-121.96 185.43 -120.41 174.96 -116 161 C-115.09 158.47 -114.11 156 -113.07 153.52 C-111.81 150.54 -110.65 147.53 -109.5 144.5 C-109.08 143.4 -108.65 142.31 -108.21 141.18 C-107.46 139.2 -106.72 137.22 -106 135.23 C-103.91 129.58 -101.41 124.23 -97 120 C-94.81 119.29 -94.81 119.29 -93 119 C-93 118.34 -93 117.68 -93 117 C-91.01 115.45 -89.03 114.03 -86.94 112.62 C-86.34 112.22 -85.75 111.82 -85.14 111.4 C-81.19 108.74 -77.2 106.25 -73 104 C-72.77 101.73 -72.77 101.73 -75.12 99.81 C-75.8 99.16 -75.8 99.16 -76.5 98.49 C-78.14 96.87 -79.67 95.18 -81.19 93.44 C-81.68 92.88 -82.16 92.32 -82.67 91.75 C-85.61 87.9 -86.55 84.61 -86.45 79.69 C-85.5 74.05 -82.56 69.06 -80 64 C-77.63 58.95 -75.56 53.85 -73.62 48.62 C-68.8 35.97 -61.34 25.21 -53.52 14.26 C-52.15 12.23 -51.04 10.22 -50 8 C-49.01 8 -48.02 8 -47 8 C-47 7.34 -47 6.68 -47 6 C-46.34 6 -45.68 6 -45 6 C-45 5.34 -45 4.68 -45 4 C-42.32 2.51 -39.63 1.03 -36.94 -0.44 C-36.19 -0.86 -35.43 -1.28 -34.66 -1.71 C-22.6 -8.24 -11.57 -6.56 0 0 Z M-23 5 C-30.99 8.38 -36.89 12.89 -43 19 C-43.64 19.64 -44.27 20.27 -44.93 20.93 C-48.21 24.46 -49.76 27 -50 32 C-50.66 32 -51.32 32 -52 32 C-52.25 32.52 -52.51 33.04 -52.77 33.57 C-53.11 34.27 -53.46 34.97 -53.81 35.69 C-54.32 36.71 -54.32 36.71 -54.83 37.76 C-55.64 39.31 -56.5 40.83 -57.41 42.33 C-59.3 45.5 -60.97 48.76 -62.62 52.06 C-62.94 52.67 -63.25 53.29 -63.57 53.92 C-65.07 56.9 -66.39 59.7 -67 63 C-63.92 64.54 -61.06 63.36 -57.81 62.69 C-42.87 59.76 -28.19 58.54 -13 58 C-13.69 54.9 -13.69 54.9 -16.06 53.62 C-18 52 -18 52 -18.25 49.31 C-18.17 48.55 -18.09 47.79 -18 47 C-15.24 47.52 -12.67 48.11 -10 49 C-8.94 50.87 -8.94 50.87 -8 53 C-7.34 53.99 -6.68 54.98 -6 56 C-5.34 56 -4.68 56 -4 56 C-4.59 52.39 -6.03 50.46 -8.44 47.75 C-9.36 46.69 -9.36 46.69 -10.31 45.61 C-11.85 43.77 -11.85 43.77 -14 44 C-14 43.34 -14 42.68 -14 42 C-14.96 41.72 -14.96 41.72 -15.94 41.44 C-18 40 -18 40 -18.75 36.38 C-18.83 35.26 -18.91 34.15 -19 33 C-17.35 33 -15.7 33 -14 33 C-13.67 31.68 -13.34 30.36 -13 29 C-13.66 29 -14.32 29 -15 29 C-15 28.34 -15 27.68 -15 27 C-15.99 26.34 -16.98 25.68 -18 25 C-18.69 22.38 -18.69 22.38 -19 20 C-13.42 21.2 -10.88 22.61 -7 27 C-5.34 28.67 -3.67 30.34 -2 32 C1.67 35.67 5.33 39.33 9 43 C9.88 43.86 10.75 44.73 11.66 45.62 C13.55 47.54 15.3 49.47 17 51.56 C19.43 54.44 21.99 56.72 25 59 C26.02 59.98 27.03 60.97 28 62 C28.66 61.67 29.32 61.34 30 61 C29.01 59.02 29.01 59.02 28 57 C27.34 57 26.68 57 26 57 C25.75 56.42 25.5 55.84 25.25 55.25 C23.82 52.67 22.22 50.94 20 49 C19.34 49 18.68 49 18 49 C18 48.34 18 47.68 18 47 C16.61 45.84 15.21 44.69 13.79 43.57 C11.09 41.2 8.88 38.45 6.61 35.67 C5 33.74 5 33.74 2 33 C1.33 31.67 0.66 30.34 0 29 C-1.96 27.05 -1.96 27.05 -4.25 25.19 C-7.77 22.16 -10.82 19.08 -13.71 15.45 C-15.13 13.73 -15.13 13.73 -18 12 C-18.69 9.38 -18.69 9.38 -19 7 C-19.99 7 -20.98 7 -22 7 C-22.5 6.01 -22.5 6.01 -23 5 Z M-12 7 C-12.23 9.24 -12.23 9.24 -10 11.12 C-9.31 11.78 -9.31 11.78 -8.61 12.45 C-6.77 14.22 -4.98 16.05 -3.19 17.88 C-0.49 20.58 2.28 23.14 5.19 25.62 C8.54 28.5 11.28 31.52 14 35 C14.66 34.67 15.32 34.34 16 34 C14.35 31.03 12.7 28.06 11 25 C10.34 25 9.68 25 9 25 C8.81 24.32 8.63 23.64 8.44 22.94 C6.44 18.86 3.57 15.8 0 13 C-2.13 12.27 -2.13 12.27 -4 12 C-4 11.34 -4 10.68 -4 10 C-7.8 7.8 -7.8 7.8 -12 7 Z M-13 32 C-12.34 33.65 -11.68 35.3 -11 37 C-10.34 37 -9.68 37 -9 37 C-8.84 37.68 -8.67 38.36 -8.5 39.06 C-6.31 43.35 -2.88 46.2 1 49 C1.66 49 2.32 49 3 49 C3 49.66 3 50.32 3 51 C3.66 51 4.32 51 5 51 C5.27 51.6 5.54 52.2 5.81 52.81 C7 55 8.1 56.41 10 58 C10.66 58 11.32 58 12 58 C12.33 58.66 12.66 59.32 13 60 C13.33 59.01 13.66 58.02 14 57 C13.34 57 12.68 57 12 57 C11.76 56.44 11.53 55.88 11.28 55.3 C9.71 52.48 7.79 50.52 5.5 48.25 C4.71 47.45 3.91 46.65 3.09 45.83 C1.21 43.78 1.21 43.78 -1 44 C-1.33 43.01 -1.66 42.02 -2 41 C-3.62 39.29 -5.29 37.63 -7 36 C-7.72 35.24 -8.44 34.47 -9.19 33.69 C-10.83 31.77 -10.83 31.77 -13 32 Z M-49 74 C-51.83 82.48 -43.9 95.75 -40.44 103.5 C-34.49 109.6 -25.35 111.87 -17.02 112.27 C-9.23 111.58 -1.21 107.86 4 102 C5.61 98.75 6.79 95.41 8 92 C8.56 90.84 9.11 89.69 9.69 88.5 C11.35 84.07 11.96 79.73 12 75 C10.95 73.73 10.95 73.73 8.6 73.88 C7.01 73.88 7.01 73.88 5.38 73.89 C3.58 73.89 3.58 73.89 1.74 73.89 C-0.22 73.89 -0.22 73.89 -2.22 73.9 C-3.57 73.9 -4.91 73.91 -6.25 73.91 C-9.8 73.91 -13.34 73.92 -16.88 73.93 C-20.5 73.94 -24.11 73.95 -27.72 73.95 C-34.81 73.96 -41.91 73.98 -49 74 Z M-85 135 C-84.89 142.87 -84.78 150.73 -84.66 158.6 C-84.61 162.25 -84.55 165.91 -84.5 169.56 C-84.45 173.09 -84.4 176.62 -84.35 180.14 C-84.32 182.14 -84.29 184.14 -84.27 186.13 C-84.25 187.35 -84.23 188.57 -84.21 189.83 C-84.19 190.91 -84.17 191.98 -84.16 193.08 C-84.08 195.93 -84.08 195.93 -83.49 198.4 C-82.84 201.87 -82.89 205.29 -82.94 208.81 C-82.94 209.51 -82.95 210.2 -82.95 210.91 C-82.96 212.61 -82.98 214.3 -83 216 C-66.33 216.02 -49.66 216.04 -32.98 216.05 C-25.24 216.06 -17.5 216.06 -9.76 216.08 C-3.02 216.09 3.73 216.09 10.47 216.09 C14.04 216.1 17.62 216.1 21.19 216.11 C25.17 216.11 29.15 216.11 33.14 216.11 C34.33 216.12 35.52 216.12 36.75 216.12 C37.83 216.12 38.91 216.12 40.02 216.12 C41.43 216.12 41.43 216.12 42.88 216.12 C44.98 216.24 44.98 216.24 46 215 C46.15 212.26 46.24 209.54 46.28 206.8 C46.31 205.52 46.31 205.52 46.34 204.21 C46.4 201.39 46.45 198.57 46.5 195.75 C46.58 191.83 46.66 187.91 46.74 183.99 C46.76 183 46.78 182 46.8 180.97 C46.94 174.3 47.12 167.62 47.32 160.95 C47.35 160.09 47.37 159.23 47.4 158.34 C47.5 155.04 47.6 151.74 47.71 148.44 C47.78 146.18 47.85 143.93 47.91 141.68 C47.95 140.41 48 139.14 48.04 137.83 C48.33 135.1 48.33 135.1 47 134 C45.22 133.91 43.44 133.88 41.65 133.89 C39.94 133.89 39.94 133.89 38.2 133.89 C36.33 133.89 36.33 133.89 34.43 133.9 C33.17 133.9 31.91 133.91 30.6 133.91 C27.24 133.91 23.87 133.92 20.51 133.93 C17.08 133.94 13.64 133.95 10.21 133.95 C3.48 133.96 -3.26 133.98 -10 134 C-7.14 135.9 -4.35 137.29 -1.25 138.75 C10.32 144.61 14.38 151.11 19 163 C21.42 172.31 20.12 181.08 17 190 C16.65 191.33 16.31 192.66 16 194 C15.34 194 14.68 194 14 194 C13.76 194.53 13.52 195.06 13.27 195.61 C9.43 203.7 4.49 208 -3.97 211.08 C-13.47 213.66 -28.1 214.51 -37.2 210.47 C-39.98 208.8 -42.47 207.02 -45 205 C-45.99 204.67 -46.98 204.34 -48 204 C-49 202.24 -49 202.24 -50 200 C-51.5 197.56 -53.03 195.15 -54.56 192.73 C-57.64 186.89 -58.39 181.23 -58.38 174.75 C-58.37 174.01 -58.37 173.26 -58.37 172.5 C-58.23 166.08 -56.86 160.77 -54 155 C-53.66 154.3 -53.33 153.6 -52.98 152.88 C-51.15 149.37 -49.26 147.21 -46 145 C-46 144.34 -46 143.68 -46 143 C-41.92 140.92 -37.74 139.08 -33.56 137.22 C-30.85 136 -30.85 136 -28 134 C-35.8 133.97 -43.59 133.96 -51.39 133.95 C-54.04 133.94 -56.7 133.93 -59.35 133.92 C-63.16 133.91 -66.97 133.91 -70.77 133.9 C-71.97 133.9 -73.16 133.89 -74.39 133.89 C-76.04 133.89 -76.04 133.89 -77.72 133.89 C-78.7 133.88 -79.67 133.88 -80.67 133.88 C-83.02 133.85 -83.02 133.85 -85 135 Z M-33.19 144.81 C-33.92 145.17 -34.66 145.53 -35.42 145.89 C-36.47 146.42 -36.47 146.42 -37.54 146.96 C-38.5 147.44 -38.5 147.44 -39.48 147.93 C-41.33 149.01 -41.33 149.01 -42 152 C-42.6 152.25 -43.2 152.5 -43.81 152.75 C-47.28 154.73 -48.67 157.36 -50 161 C-52.25 171.01 -53.24 180.88 -48.31 190.19 C-47.17 191.58 -47.17 191.58 -46 193 C-45.5 193.65 -45.01 194.29 -44.5 194.96 C-39.32 201.41 -33.3 205.76 -25 207 C-12.76 207.88 -6.25 205.21 3.58 198.13 C6.09 195.92 7.52 193.98 9 191 C9 190.34 9 189.68 9 189 C9.66 189 10.32 189 11 189 C12.65 183.96 13.36 179.39 13.31 174.06 C13.31 173.36 13.3 172.66 13.3 171.93 C13.12 163.87 10.67 158.44 6 152 C5.34 152.33 4.68 152.66 4 153 C4.01 153.7 4.02 154.4 4.04 155.12 C4.04 156.03 4.05 156.94 4.06 157.88 C4.07 158.78 4.09 159.68 4.1 160.62 C4 163 4 163 3 165 C1.02 165 -0.96 165 -3 165 C-3.5 162.03 -3.5 162.03 -4 159 C-8.01 158.82 -8.01 158.82 -12 159 C-14.33 160.89 -14.33 160.89 -14.23 164.07 C-14.21 166.01 -14.21 166.01 -14.2 167.98 C-14.19 169 -14.19 169 -14.19 170.05 C-14.18 172.24 -14.15 174.43 -14.12 176.62 C-14.11 178.11 -14.11 179.59 -14.1 181.08 C-14.08 184.72 -14.04 188.36 -14 192 C-12.02 192.66 -10.04 193.32 -8 194 C-8 196.31 -8 198.62 -8 201 C-12.32 202.44 -16.45 202.02 -20.97 201.94 C-24.05 201.85 -24.05 201.85 -27 203 C-27.66 200.03 -28.32 197.06 -29 194 C-25.53 193.5 -25.53 193.5 -22 193 C-22 181.78 -22 170.56 -22 159 C-24.97 159 -27.94 159 -31 159 C-34.17 162.51 -34.17 162.51 -35 167 C-37.45 165.92 -37.45 165.92 -40 164 C-40.71 160.86 -40.71 160.86 -40.81 157.31 C-40.86 156.13 -40.91 154.95 -40.96 153.74 C-40.97 152.83 -40.99 151.93 -41 151 C-39.83 151.01 -38.67 151.01 -37.47 151.02 C-33.15 151.03 -28.82 151.05 -24.5 151.05 C-22.63 151.06 -20.76 151.07 -18.89 151.08 C-16.2 151.09 -13.51 151.09 -10.82 151.1 C-9.99 151.1 -9.15 151.11 -8.29 151.11 C-4.94 151.11 -2.2 151.07 1 150 C0.5 148.51 0.5 148.51 0 147 C-1.64 146.27 -3.31 145.61 -5 145 C-5.7 144.48 -6.4 143.97 -7.12 143.44 C-15.71 139.14 -25.04 140.68 -33.19 144.81 Z M-82 227 C-81.67 228.32 -81.34 229.64 -81 231 C-39.75 231 1.5 231 44 231 C44.33 230.34 44.66 229.68 45 229 C44.34 229 43.68 229 43 229 C43 228.34 43 227.68 43 227 C1.75 227 -39.5 227 -82 227 Z " fill="#4A4A4A" transform="translate(352,70)"/>
<path d="M0 0 C0.77 0.02 1.55 0.05 2.34 0.07 C4.81 0.15 7.27 0.23 9.74 0.32 C11.41 0.37 13.08 0.42 14.76 0.47 C18.85 0.6 22.95 0.74 27.05 0.88 C27.05 1.87 27.05 2.86 27.05 3.88 C27.71 4.54 28.37 5.2 29.05 5.88 C28.68 9.5 28.68 9.5 28.05 12.88 C27.39 12.55 26.73 12.22 26.05 11.88 C26.05 10.89 26.05 9.9 26.05 8.88 C24.75 9.02 23.45 9.17 22.11 9.32 C21.38 9.4 20.65 9.48 19.9 9.56 C18.04 9.7 18.04 9.7 17.05 10.88 C16.96 13.17 16.94 15.46 16.95 17.76 C16.96 18.79 16.96 18.79 16.96 19.84 C16.96 22.04 16.98 24.24 16.99 26.44 C16.99 27.93 17 29.42 17 30.91 C17.01 34.57 17.03 38.22 17.05 41.88 C17.86 42.16 18.66 42.44 19.5 42.72 C20.76 43.3 20.76 43.3 22.05 43.88 C22.93 46.38 22.93 46.38 23.05 48.88 C22.56 49.87 22.56 49.87 22.05 50.88 C21.39 50.88 20.73 50.88 20.05 50.88 C19.72 51.54 19.39 52.2 19.05 52.88 C16.43 52.96 13.8 53.02 11.18 53.07 C10.43 53.09 9.68 53.12 8.91 53.14 C6.75 53.17 6.75 53.17 3.05 52.88 C0.76 49.44 0.87 47.89 1.05 43.88 C4.52 43.38 4.52 43.38 8.05 42.88 C8.05 31.66 8.05 20.44 8.05 8.88 C3.6 9.37 3.6 9.37 -0.95 9.88 C-3.59 13.27 -3.59 13.27 -4.95 16.88 C-9.82 15 -9.82 15 -10.95 13.88 C-11.02 11.69 -11.03 9.5 -11.01 7.32 C-11 6.12 -10.99 4.92 -10.98 3.69 C-10.97 2.76 -10.96 1.83 -10.95 0.88 C-7.22 -0.36 -3.87 -0.14 0 0 Z " fill="#474747" transform="translate(321.94921875,220.12109375)"/>
<path d="M0 0 C21.45 0 42.9 0 65 0 C65 0.33 65 0.66 65 1 C62.36 1.33 59.72 1.66 57 2 C57.5 3.49 57.5 3.49 58 5 C58.66 5 59.32 5 60 5 C60 5.66 60 6.32 60 7 C60.66 7 61.32 7 62 7 C61.67 7.66 61.34 8.32 61 9 C60.12 9.14 59.25 9.28 58.34 9.43 C50.39 10.79 41.92 15.67 37.07 22.19 C33.7 27.88 32.58 33.47 32 40 C31.67 40 31.34 40 31 40 C29.57 31.43 29.57 31.43 32 28 C30.68 28 29.36 28 28 28 C28 28.66 28 29.32 28 30 C27.34 30 26.68 30 26 30 C26.69 21.01 31.69 14.79 38.13 8.92 C42.42 6.05 47.3 4.14 52 2 C34.84 1.67 17.68 1.34 0 1 C0 0.67 0 0.34 0 0 Z " fill="#4E4E4E" transform="translate(269,203)"/>
<path d="M0 0 C20.79 0 41.58 0 63 0 C63 0.33 63 0.66 63 1 C45.51 1.33 28.02 1.66 10 2 C13.96 3.98 17.92 5.96 22 8 C24.83 10.31 27.44 12.46 30 15 C29.01 15.33 28.02 15.66 27 16 C26.67 18.31 26.34 20.62 26 23 C24.68 22.01 23.36 21.02 22 20 C22.02 20.69 22.05 21.37 22.07 22.08 C22.1 23.43 22.1 23.43 22.12 24.81 C22.15 25.71 22.17 26.6 22.2 27.52 C22 30 22 30 20 33 C18.02 32.67 16.04 32.34 14 32 C14.12 31.4 14.24 30.79 14.36 30.17 C14.75 27.73 15.05 25.47 15 23 C13.25 20.41 13.25 20.41 11 19 C13.65 17.54 14.89 17 18 17 C14.65 13.32 10.92 11.89 6.25 10.38 C5.45 10.11 4.65 9.85 3.83 9.59 C3.22 9.39 2.62 9.2 2 9 C3.32 8.67 4.64 8.34 6 8 C6 6.35 6 4.7 6 3 C4.35 3 2.7 3 1 3 C0.67 2.01 0.34 1.02 0 0 Z " fill="#6E6E6E" transform="translate(335,203)"/>
<path d="M0 0 C1.08 0.02 2.16 0.04 3.27 0.05 C4.5 0.09 4.5 0.09 5.75 0.12 C5.75 0.45 5.75 0.79 5.75 1.12 C32.22 1.94 58.68 2.38 85.16 2.66 C90.1 2.71 95.04 2.76 99.99 2.82 C109.57 2.92 119.16 3.03 128.75 3.12 C128.75 3.45 128.75 3.79 128.75 4.12 C82.88 4.12 37.01 4.12 -10.25 4.12 C-10.25 3.46 -10.25 2.81 -10.25 2.12 C-6.77 -0.02 -4.04 -0.09 0 0 Z " fill="#626262" transform="translate(273.25,306.875)"/>
<path d="M0 0 C21.45 0 42.9 0 65 0 C65 0.33 65 0.66 65 1 C62.36 1.33 59.72 1.66 57 2 C57.5 3.49 57.5 3.49 58 5 C58.66 5 59.32 5 60 5 C60 5.66 60 6.32 60 7 C60.66 7 61.32 7 62 7 C61.67 7.66 61.34 8.32 61 9 C60.13 9.14 59.27 9.29 58.38 9.44 C54.48 10.09 51.57 11.36 48 13 C48 12.34 48 11.68 48 11 C46.89 10.86 45.77 10.71 44.62 10.56 C41 10 41 10 39 9 C40.23 8.2 41.46 7.41 42.69 6.62 C43.71 5.96 43.71 5.96 44.76 5.29 C47 4 47 4 52 2 C34.84 1.67 17.68 1.34 0 1 C0 0.67 0 0.34 0 0 Z " fill="#919191" transform="translate(269,203)"/>
<path d="M0 0 C4.93 -0.07 9.86 -0.13 14.79 -0.16 C16.47 -0.18 18.14 -0.2 19.82 -0.23 C22.23 -0.26 24.64 -0.28 27.05 -0.29 C27.8 -0.31 28.55 -0.32 29.32 -0.34 C31.45 -0.34 31.45 -0.34 35 0 C35.99 0.99 36.98 1.98 38 3 C18.53 3 -0.94 3 -21 3 C-21 2.67 -21 2.34 -21 2 C-14.07 2 -7.14 2 0 2 C0 1.34 0 0.68 0 0 Z " fill="#8D8D8D" transform="translate(325,141)"/>
<path d="M0 0 C1.16 0.01 2.33 0.02 3.52 0.03 C5.41 0.04 5.41 0.04 7.33 0.05 C9.31 0.08 9.31 0.08 11.33 0.1 C12.67 0.11 14.01 0.12 15.35 0.13 C18.63 0.15 21.92 0.19 25.2 0.23 C25.2 1.22 25.2 2.21 25.2 3.23 C25.86 3.89 26.52 4.55 27.2 5.23 C26.83 8.85 26.83 8.85 26.2 12.23 C25.87 12.23 25.54 12.23 25.2 12.23 C25.2 10.58 25.2 8.93 25.2 7.23 C22.23 7.23 19.26 7.23 16.2 7.23 C16.53 5.91 16.86 4.59 17.2 3.23 C17.86 3.56 18.52 3.89 19.2 4.23 C19.53 3.57 19.86 2.91 20.2 2.23 C18.55 2.23 16.9 2.23 15.2 2.23 C14.87 3.22 14.54 4.21 14.2 5.23 C12.22 5.56 10.24 5.89 8.2 6.23 C8.2 5.57 8.2 4.91 8.2 4.23 C8.86 3.9 9.52 3.57 10.2 3.23 C7.56 3.56 4.92 3.89 2.2 4.23 C2.2 3.9 2.2 3.57 2.2 3.23 C-0.11 2.9 -2.42 2.57 -4.8 2.23 C-2.8 0.23 -2.8 0.23 0 0 Z " fill="#3E3E3E" transform="translate(323.79736328125,220.77294921875)"/>
<path d="M0 0 C2.28 2.88 4.04 5.78 5.69 9.06 C6.12 9.92 6.56 10.78 7.01 11.66 C8 14 8 14 8 17 C5.03 17 2.06 17 -1 17 C-1.03 14.35 -1.05 11.71 -1.06 9.06 C-1.07 8.31 -1.08 7.55 -1.09 6.78 C-1.1 4.85 -1.05 2.92 -1 1 C-0.67 0.67 -0.34 0.34 0 0 Z " fill="#5B5B5B" transform="translate(334,145)"/>
<path d="M0 0 C0.72 0.74 1.44 1.49 2.19 2.25 C4.69 4.7 7.23 6.86 10 9 C11.67 10.33 13.33 11.67 15 13 C12.69 13 10.38 13 8 13 C8 12.01 8 11.02 8 10 C7.01 10 6.02 10 5 10 C4.89 12.21 4.89 12.21 6 15 C8.64 15 11.28 15 14 15 C14 15.99 14 16.98 14 18 C12.36 18.7 12.36 18.7 10 19 C7.24 17.67 7.24 17.67 4.31 15.75 C3.34 15.13 2.37 14.5 1.36 13.86 C-1 12 -1 12 -2 9 C-1.34 9 -0.68 9 0 9 C0 9.66 0 10.32 0 11 C0.66 11 1.32 11 2 11 C1.67 10.01 1.34 9.02 1 8 C1 6.33 1 4.67 1 3 C0.67 2.01 0.34 1.02 0 0 Z " fill="#585858" transform="translate(305,262)"/>
<path d="M0 0 C3.51 0.19 4.89 0.91 7.56 3.25 C9.8 5.77 11.94 8.33 14 11 C11.36 10.67 8.72 10.34 6 10 C5.67 10.99 5.34 11.98 5 13 C4.88 12.07 4.88 12.07 4.75 11.12 C4.19 8.83 4.19 8.83 2 7.81 C1.34 7.54 0.68 7.28 0 7 C-1 6 -1 6 -1.12 3.5 C-1 1 -1 1 0 0 Z " fill="#4E4E4E" transform="translate(334,116)"/>
<path d="M0 0 C1.32 0 2.64 0 4 0 C3.83 0.93 3.67 1.86 3.5 2.81 C2.76 7.86 2.92 12.91 3 18 C2.67 18 2.34 18 2 18 C1.67 15.03 1.34 12.06 1 9 C-1.17 9.79 -1.17 9.79 -1.63 11.85 C-1.8 12.58 -1.96 13.31 -2.12 14.06 C-2.29 14.8 -2.46 15.53 -2.63 16.29 C-2.75 16.85 -2.88 17.42 -3 18 C-3.33 18 -3.66 18 -4 18 C-4.05 15.92 -4.09 13.83 -4.12 11.75 C-4.15 10.59 -4.17 9.43 -4.2 8.23 C-4.01 5.17 -3.61 3.56 -2 1 C-1.34 1.33 -0.68 1.66 0 2 C0 1.34 0 0.68 0 0 Z " fill="#414141" transform="translate(297,231)"/>
<path d="M0 0 C2.88 0.25 2.88 0.25 6 1 C7.44 2.94 7.44 2.94 8 5 C7.67 5.66 7.34 6.32 7 7 C6.34 7 5.68 7 5 7 C4.67 7.66 4.34 8.32 4 9 C-1.28 9 -6.56 9 -12 9 C-12 8.01 -12 7.02 -12 6 C-7.05 5.67 -2.1 5.34 3 5 C2.01 3.35 1.02 1.7 0 0 Z " fill="#404040" transform="translate(337,264)"/>
<path d="M0 0 C5.41 3.17 9.04 7.18 13 12 C12.67 12.66 12.34 13.32 12 14 C11.34 14 10.68 14 10 14 C9.67 13.34 9.34 12.68 9 12 C7.02 12.33 5.04 12.66 3 13 C3 10.16 3.4 7.76 4 5 C3.01 4.67 2.02 4.34 1 4 C0.31 1.94 0.31 1.94 0 0 Z " fill="#565656" transform="translate(405,186)"/>
<path d="M0 0 C1.32 0 2.64 0 4 0 C6.68 4.02 6.16 6.24 6 11 C5.34 11 4.68 11 4 11 C4 10.34 4 9.68 4 9 C2.68 8.67 1.36 8.34 0 8 C0 5.36 0 2.72 0 0 Z " fill="#434343" transform="translate(301,262)"/>
<path d="M0 0 C2.31 0 4.62 0 7 0 C7.66 1.32 8.32 2.64 9 4 C7.68 4 6.36 4 5 4 C7.97 4.5 7.97 4.5 11 5 C11 7.97 11 10.94 11 14 C10.67 14 10.34 14 10 14 C10 11.36 10 8.72 10 6 C6.7 6.33 3.4 6.66 0 7 C0 4.69 0 2.38 0 0 Z " fill="#636363" transform="translate(320,223)"/>
<path d="M0 0 C0.87 0.77 0.87 0.77 1.75 1.56 C1.42 3.87 1.09 6.18 0.75 8.56 C-3.05 7.07 -4.86 4.81 -7.25 1.56 C-6.25 -0.44 -6.25 -0.44 -4.44 -1.25 C-2.25 -1.44 -2.25 -1.44 0 0 Z " fill="#474747" transform="translate(364.25,116.4375)"/>
<path d="M0 0 C2.01 0.29 4.01 0.62 6 1 C6 1.66 6 2.32 6 3 C6.66 3 7.32 3 8 3 C8 4.98 8 6.96 8 9 C7.44 8.69 6.89 8.38 6.31 8.06 C3.87 6.94 1.64 6.44 -1 6 C-1.04 4.33 -1.04 2.67 -1 1 C-0.67 0.67 -0.34 0.34 0 0 Z " fill="#484848" transform="translate(334,76)"/>
<path d="M0 0 C2.25 -0.34 2.25 -0.34 5.01 -0.29 C5.99 -0.28 6.98 -0.27 8 -0.26 C9.03 -0.24 10.06 -0.21 11.12 -0.19 C12.69 -0.17 12.69 -0.17 14.28 -0.15 C16.85 -0.11 19.43 -0.06 22 0 C22 0.66 22 1.32 22 2 C14.08 2.33 6.16 2.66 -2 3 C-1.34 2.01 -0.68 1.02 0 0 Z " fill="#373737" transform="translate(303,141)"/>
<path d="M0 0 C0.33 0.99 0.66 1.98 1 3 C1.66 3.33 2.32 3.66 3 4 C-0.3 6.2 -0.89 6.21 -4.62 5.75 C-5.42 5.66 -6.22 5.57 -7.04 5.48 C-7.69 5.32 -8.33 5.16 -9 5 C-9.33 4.34 -9.66 3.68 -10 3 C-12.02 2.35 -12.02 2.35 -14 2 C-13 1 -13 1 -10.71 0.9 C-9.34 0.92 -9.34 0.92 -7.94 0.94 C-7.02 0.95 -6.1 0.96 -5.15 0.96 C-4.44 0.98 -3.73 0.99 -3 1 C-3 1.66 -3 2.32 -3 3 C-2.34 3 -1.68 3 -1 3 C-0.67 2.01 -0.34 1.02 0 0 Z " fill="#3B3B3B" transform="translate(349,276)"/>
<path d="M0 0 C0.66 0 1.32 0 2 0 C2 0.66 2 1.32 2 2 C2.66 2 3.32 2 4 2 C5.39 3.96 6.73 5.96 8 8 C7.01 8.33 6.02 8.66 5 9 C4.34 8.01 3.68 7.02 3 6 C2.34 6 1.68 6 1 6 C1.33 7.32 1.66 8.64 2 10 C0.68 10.33 -0.64 10.66 -2 11 C-2.62 8.62 -2.62 8.62 -3 6 C-2.34 5.34 -1.68 4.68 -1 4 C-0.36 1.93 -0.36 1.93 0 0 Z " fill="#606060" transform="translate(353,119)"/>
<path d="M0 0 C2.31 0 4.62 0 7 0 C7.33 1.65 7.66 3.3 8 5 C6.35 4.67 4.7 4.34 3 4 C2.34 5.32 1.68 6.64 1 8 C0 7 0 7 -0.06 3.44 C-0.04 2.3 -0.02 1.17 0 0 Z " fill="#424242" transform="translate(333,103)"/>
<path d="M0 0 C1.08 1.11 1.08 1.11 2.19 2.25 C4.69 4.7 7.23 6.86 10 9 C11.67 10.33 13.33 11.67 15 13 C12.69 13 10.38 13 8 13 C8 12.01 8 11.02 8 10 C7.38 9.69 6.76 9.38 6.12 9.06 C4.75 8.38 3.38 7.69 2 7 C1.27 4.69 0.6 2.35 0 0 Z " fill="#727272" transform="translate(305,262)"/>
<path d="M0 0 C0.99 0.33 1.98 0.66 3 1 C3.25 3.75 3.25 3.75 3 7 C1 9.38 1 9.38 -1 11 C-3.12 4.25 -3.12 4.25 -2 2 C-1.34 2 -0.68 2 0 2 C0 1.34 0 0.68 0 0 Z " fill="#333333" transform="translate(350,117)"/>
<path d="M0 0 C0.66 0.33 1.32 0.66 2 1 C0.12 4.88 0.12 4.88 -1 6 C-0.67 6 -0.34 6 0 6 C0 7.65 0 9.3 0 11 C-0.99 11.33 -1.98 11.66 -3 12 C-3.99 11.34 -4.98 10.68 -6 10 C-5.67 8.02 -5.34 6.04 -5 4 C-4.01 4 -3.02 4 -2 4 C-2 3.34 -2 2.68 -2 2 C-1.34 2 -0.68 2 0 2 C0 1.34 0 0.68 0 0 Z " fill="#656565" transform="translate(307,74)"/>
<path d="M0 0 C1.65 0 3.3 0 5 0 C4.67 0.99 4.34 1.98 4 3 C3.34 2.67 2.68 2.34 2 2 C1.67 2.99 1.34 3.98 1 5 C3.97 5 6.94 5 10 5 C9.67 6.32 9.34 7.64 9 9 C9 8.01 9 7.02 9 6 C5.7 6.33 2.4 6.66 -1 7 C-1.33 6.34 -1.66 5.68 -2 5 C-2.99 4.34 -3.98 3.68 -5 3 C-4.36 2.88 -3.72 2.75 -3.06 2.62 C-2.04 2.32 -2.04 2.32 -1 2 C-0.67 1.34 -0.34 0.68 0 0 Z " fill="#686868" transform="translate(339,223)"/>
<path d="M0 0 C0.99 0 1.98 0 3 0 C3.37 5.42 3.37 5.42 1.5 8.38 C1 8.91 0.51 9.45 0 10 C-1.32 9.67 -2.64 9.34 -4 9 C-4 8.34 -4 7.68 -4 7 C-3.01 7 -2.02 7 -1 7 C-1.02 6.03 -1.04 5.06 -1.06 4.06 C-1 1 -1 1 0 0 Z " fill="#3C3C3C" transform="translate(317,227)"/>
<path d="M0 0 C4.02 1.34 4.78 3.49 7 7 C7.66 7.66 8.32 8.32 9 9 C6.36 8.67 3.72 8.34 1 8 C0.67 8.99 0.34 9.98 0 11 C-0.33 8.69 -0.66 6.38 -1 4 C-0.01 4.33 0.98 4.66 2 5 C2 4.01 2 3.02 2 2 C1.34 2 0.68 2 0 2 C0 1.34 0 0.68 0 0 Z " fill="#6A6A6A" transform="translate(339,118)"/>
<path d="M0 0 C4.62 0 9.24 0 14 0 C14 0.66 14 1.32 14 2 C15.32 2 16.64 2 18 2 C18.33 3.32 18.66 4.64 19 6 C16.36 5.67 13.72 5.34 11 5 C11.66 3.68 12.32 2.36 13 1 C8.71 1 4.42 1 0 1 C0 0.67 0 0.34 0 0 Z " fill="#676767" transform="translate(318,128)"/>
<path d="M0 0 C2.31 0.33 4.62 0.66 7 1 C7 1.99 7 2.98 7 4 C6.34 4 5.68 4 5 4 C5 4.66 5 5.32 5 6 C2.03 5.5 2.03 5.5 -1 5 C-0.67 3.35 -0.34 1.7 0 0 Z " fill="#434343" transform="translate(319,207)"/>
<path d="M0 0 C1.98 0 3.96 0 6 0 C6 0.99 6 1.98 6 3 C5.34 3 4.68 3 4 3 C4 4.32 4 5.64 4 7 C2.68 6.34 1.36 5.68 0 5 C0 3.35 0 1.7 0 0 Z " fill="#686868" transform="translate(333,90)"/>
<path d="M0 0 C0.99 0 1.98 0 3 0 C3.33 0.99 3.66 1.98 4 3 C5.32 2.34 6.64 1.68 8 1 C8 2.65 8 4.3 8 6 C6 7 6 7 3.44 6.38 C1 5 1 5 0.19 2.38 C0.13 1.59 0.06 0.81 0 0 Z " fill="#424242" transform="translate(343,88)"/>
<path d="M0 0 C0.66 0.66 1.32 1.32 2 2 C2.99 2.66 3.98 3.32 5 4 C4.67 5.32 4.34 6.64 4 8 C2.02 8.33 0.04 8.66 -2 9 C-1.34 6.03 -0.68 3.06 0 0 Z " fill="#3A3A3A" transform="translate(355,212)"/>
<path d="M0 0 C0.66 0.33 1.32 0.66 2 1 C1.28 4.79 0.48 8.43 -1 12 C-4.19 13.69 -4.19 13.69 -7 14 C-3.25 7.12 -3.25 7.12 -1 6 C-0.34 2.97 -0.34 2.97 0 0 Z " fill="#6C6C6C" transform="translate(359,162)"/>
<path d="M0 0 C-0.66 0 -1.32 0 -2 0 C-2.33 1.98 -2.66 3.96 -3 6 C-3.99 6.33 -4.98 6.66 -6 7 C-7 6 -7 6 -7.06 2.94 C-7.04 1.97 -7.02 1 -7 0 C-3.87 -1.04 -3.01 -0.93 0 0 Z " fill="#5C5C5C" transform="translate(330,264)"/>
<path d="M0 0 C0.66 0 1.32 0 2 0 C3.06 2.38 3.06 2.38 4 5 C3.67 5.66 3.34 6.32 3 7 C1.35 7 -0.3 7 -2 7 C-1.12 2.25 -1.12 2.25 0 0 Z " fill="#5B5B5B" transform="translate(244,211)"/>
<path d="M0 0 C0.66 1.32 1.32 2.64 2 4 C2.66 4 3.32 4 4 4 C3.67 5.65 3.34 7.3 3 9 C2.01 8.67 1.02 8.34 0 8 C0 7.34 0 6.68 0 6 C-0.66 6 -1.32 6 -2 6 C-1.34 4.02 -0.68 2.04 0 0 Z " fill="#5B5B5B" transform="translate(362,155)"/>
<path d="M0 0 C1.98 1.32 3.96 2.64 6 4 C2.25 6 2.25 6 0 6 C-0.33 6.66 -0.66 7.32 -1 8 C-1.99 6.68 -2.98 5.36 -4 4 C-3.01 4 -2.02 4 -1 4 C-0.67 2.68 -0.34 1.36 0 0 Z " fill="#666666" transform="translate(351,90)"/>
<path d="M0 0 C-0.31 0.99 -0.62 1.98 -0.94 3 C-2.08 6.98 -2.57 10.89 -3 15 C-3.33 15 -3.66 15 -4 15 C-5.43 6.43 -5.43 6.43 -3 3 C-3.66 2.67 -4.32 2.34 -5 2 C-2 0 -2 0 0 0 Z " fill="#6F6F6F" transform="translate(304,228)"/>
<path d="M0 0 C0.75 1.75 0.75 1.75 1 4 C-0.94 6.25 -0.94 6.25 -3 8 C-3 7.01 -3 6.02 -3 5 C-4.32 4.67 -5.64 4.34 -7 4 C-4.69 2.68 -2.38 1.36 0 0 Z " fill="#5D5D5D" transform="translate(279,174)"/>
<path d="M0 0 C1.71 1.28 3.37 2.62 5 4 C5 4.66 5 5.32 5 6 C5.66 6.33 6.32 6.66 7 7 C4.51 8.25 3.59 7.78 1 7 C0.67 4.69 0.34 2.38 0 0 Z " fill="#666666" transform="translate(373,125)"/>
<path d="M0 0 C0.66 1.32 1.32 2.64 2 4 C2.66 4.66 3.32 5.32 4 6 C3.67 6.99 3.34 7.98 3 9 C1.68 9 0.36 9 -1 9 C-0.67 6.03 -0.34 3.06 0 0 Z " fill="#404040" transform="translate(364,255)"/>
<path d="M0 0 C1.65 0.33 3.3 0.66 5 1 C4 4 4 4 3 6 C1.68 6 0.36 6 -1 6 C-0.67 4.02 -0.34 2.04 0 0 Z " fill="#454545" transform="translate(352,108)"/>
<path d="M0 0 C0.33 0 0.66 0 1 0 C1 1.65 1 3.3 1 5 C1.66 5 2.32 5 3 5 C3 4.34 3 3.68 3 3 C3.99 2.67 4.98 2.34 6 2 C6.33 2.99 6.66 3.98 7 5 C6.01 5.33 5.02 5.66 4 6 C2.63 7.29 1.29 8.62 0 10 C0 6.7 0 3.4 0 0 Z " fill="#5B5B5B" transform="translate(232,246)"/>
<path d="M0 0 C1.98 2.97 2.74 4.49 3 8 C1.56 10.31 1.56 10.31 0 12 C-1 9 -1 9 0 6 C-0.32 4.66 -0.66 3.33 -1 2 C-0.67 1.34 -0.34 0.68 0 0 Z " fill="#707070" transform="translate(396,137)"/>
<path d="M0 0 C0.33 0 0.66 0 1 0 C1 2.64 1 5.28 1 8 C0.01 8.5 0.01 8.5 -1 9 C-1.99 8.34 -2.98 7.68 -4 7 C-3.34 6.34 -2.68 5.68 -2 5 C-1.29 3.35 -0.62 1.68 0 0 Z " fill="#3F3F3F" transform="translate(372,242)"/>
<path d="M0 0 C0.66 0.33 1.32 0.66 2 1 C2 1.99 2 2.98 2 4 C1.34 4 0.68 4 0 4 C-0.33 4.66 -0.66 5.32 -1 6 C-1 5.34 -1 4.68 -1 4 C-1.66 4 -2.32 4 -3 4 C-3.33 4.66 -3.66 5.32 -4 6 C-3.67 4.35 -3.34 2.7 -3 1 C-2.01 0.67 -1.02 0.34 0 0 Z " fill="#5B5B5B" transform="translate(243,220)"/>
<path d="M0 0 C2 2 2 2 3 5 C3.66 5.33 4.32 5.66 5 6 C5 6.66 5 7.32 5 8 C3.02 8.99 3.02 8.99 1 10 C0.86 9.05 0.71 8.1 0.56 7.12 C0.17 4.11 0.17 4.11 -1 2 C-0.67 1.34 -0.34 0.68 0 0 Z " fill="#5D5D5D" transform="translate(267,145)"/>
<path d="M0 0 C0.99 0 1.98 0 3 0 C3 1.98 3 3.96 3 6 C1.68 5.67 0.36 5.34 -1 5 C-0.67 3.35 -0.34 1.7 0 0 Z " fill="#444444" transform="translate(362,219)"/>
<path d="M0 0 C0.33 1.32 0.66 2.64 1 4 C-0.65 4 -2.3 4 -4 4 C-4 3.34 -4 2.68 -4 2 C-5.32 1.67 -6.64 1.34 -8 1 C-5.29 -0.35 -2.99 -0.07 0 0 Z " fill="#3E3E3E" transform="translate(316,212)"/>
<path d="M0 0 C3 3.75 3 3.75 3 6 C1.02 6.99 1.02 6.99 -1 8 C-1.04 5.67 -1.04 3.33 -1 1 C-0.67 0.67 -0.34 0.34 0 0 Z " fill="#8B8B8B" transform="translate(334,145)"/>
<path d="M0 0 C0.33 0 0.66 0 1 0 C1.33 2.97 1.66 5.94 2 9 C1.01 9.5 1.01 9.5 0 10 C-0.19 8.52 -0.38 7.04 -0.56 5.56 C-0.67 4.74 -0.77 3.92 -0.88 3.07 C-0.92 2.38 -0.96 1.7 -1 1 C-0.67 0.67 -0.34 0.34 0 0 Z " fill="#626262" transform="translate(371,233)"/>
<path d="M0 0 C2 1 2 1 3 3 C1.69 4.35 0.35 5.69 -1 7 C-1.33 7 -1.66 7 -2 7 C-2 5.35 -2 3.7 -2 2 C-1.34 2 -0.68 2 0 2 C0 1.34 0 0.68 0 0 Z " fill="#696969" transform="translate(308,217)"/>
<path d="M0 0 C0.66 0 1.32 0 2 0 C2 0.99 2 1.98 2 3 C2.99 2.67 3.98 2.34 5 2 C3.58 5.07 2.09 7.21 0 10 C0 6.7 0 3.4 0 0 Z " fill="#696969" transform="translate(363,144)"/>
<path d="M0 0 C0.33 0.66 0.66 1.32 1 2 C4.03 2.66 4.03 2.66 7 3 C6.67 4.65 6.34 6.3 6 8 C5.34 7.67 4.68 7.34 4 7 C4 6.34 4 5.68 4 5 C2.68 4.34 1.36 3.68 0 3 C0 2.01 0 1.02 0 0 Z " fill="#787878" transform="translate(342,115)"/>
<path d="M0 0 C2.48 0.99 2.48 0.99 5 2 C5 2.66 5 3.32 5 4 C5.66 4 6.32 4 7 4 C6.67 4.99 6.34 5.98 6 7 C1.12 3.38 1.12 3.38 0 0 Z " fill="#5A5A5A" transform="translate(362,109)"/>
<path d="M0 0 C0.66 0.33 1.32 0.66 2 1 C0.02 3.31 -1.96 5.62 -4 8 C-4.66 7.67 -5.32 7.34 -6 7 C-6 6.34 -6 5.68 -6 5 C-5.01 5 -4.02 5 -3 5 C-2.67 4.01 -2.34 3.02 -2 2 C-1.34 2 -0.68 2 0 2 C0 1.34 0 0.68 0 0 Z " fill="#6A6A6A" transform="translate(308,88)"/>
<path d="M0 0 C3.63 0.33 7.26 0.66 11 1 C9 3 9 3 7.05 3.2 C5.04 3.13 3.02 3.07 1 3 C0.67 2.01 0.34 1.02 0 0 Z " fill="#818181" transform="translate(329,74)"/>
<path d="M0 0 C0.87 0.34 0.87 0.34 1.75 0.69 C0.76 1.02 -0.23 1.35 -1.25 1.69 C-1.25 2.68 -1.25 3.67 -1.25 4.69 C-3.73 3.7 -3.73 3.7 -6.25 2.69 C-2.8 -0.39 -2.8 -0.39 0 0 Z " fill="#606060" transform="translate(352.25,220.3125)"/>
<path d="M0 0 C1.94 0.81 1.94 0.81 4 2 C4.33 2.99 4.66 3.98 5 5 C4.01 5.33 3.02 5.66 2 6 C2 5.34 2 4.68 2 4 C1.01 3.67 0.02 3.34 -1 3 C-0.67 2.01 -0.34 1.02 0 0 Z " fill="#656565" transform="translate(336,108)"/>
<path d="M0 0 C2.06 1.75 2.06 1.75 4 4 C3.75 6.25 3.75 6.25 3 8 C0 3.38 0 3.38 0 0 Z " fill="#797979" transform="translate(294,254)"/>
<path d="M0 0 C2.62 1.05 3.79 1.65 5.25 4.12 C5.5 4.74 5.75 5.36 6 6 C5.01 6 4.02 6 3 6 C0.81 3.5 0.81 3.5 -1 1 C-0.67 0.67 -0.34 0.34 0 0 Z " fill="#6A6A6A" transform="translate(412,194)"/>
<path d="M0 0 C3.41 1.14 4.12 2.04 6 5 C6 5.66 6 6.32 6 7 C5.01 7 4.02 7 3 7 C3 6.34 3 5.68 3 5 C2.34 4.67 1.68 4.34 1 4 C1.33 3.34 1.66 2.68 2 2 C1.34 2 0.68 2 0 2 C0 1.34 0 0.68 0 0 Z " fill="#6F6F6F" transform="translate(364,125)"/>
<path d="M0 0 C2 3 2 3 1.62 5.19 C1.42 5.79 1.21 6.38 1 7 C-0.32 7.33 -1.64 7.66 -3 8 C-2.69 7.24 -2.38 6.47 -2.06 5.69 C-1.32 3.81 -0.64 1.91 0 0 Z " fill="#646464" transform="translate(278,120)"/>
<path d="M0 0 C1.98 1.65 3.96 3.3 6 5 C4.68 5.33 3.36 5.66 2 6 C2 5.34 2 4.68 2 4 C1.34 4 0.68 4 0 4 C0 2.68 0 1.36 0 0 Z " fill="#797979" transform="translate(347,99)"/>
<path d="" fill="#FFFFFF" transform="translate(0,0)"/>
</svg>
